<?xml version="1.0" standalone="no"?>
 <!DOCTYPE svg PUBLIC "-//W3C//DTD SVG 1.1//EN" 
 "http://www.w3.org/Graphics/SVG/1.1/DTD/svg11.dtd"> 
<svg
  xmlns:svg="http://www.w3.org/2000/svg"
  xmlns="http://www.w3.org/2000/svg"
  xmlns:xlink="http://www.w3.org/1999/xlink"
  version="1.1"
  width="52.9082mm" height="35.1282mm" viewBox="0.0000 0.0000 52.9082 35.1282">
<title>SVG Image created as rat-ratgdo-F_Paste.svg date 2024/10/16 11:14:08 </title>
  <desc>Image generated by PCBNEW </desc>
<g style="fill:#000000; fill-opacity:1.0000;stroke:#000000; stroke-opacity:1.0000;
stroke-linecap:round; stroke-linejoin:round;"
 transform="translate(0 0) scale(1 1)">
</g>
<g style="fill:#000000; fill-opacity:0.0; 
stroke:#000000; stroke-width:0.0000; stroke-opacity:1; 
stroke-linecap:round; stroke-linejoin:round;">
<g >
</g>
<g style="fill:#000000; fill-opacity:0.0; 
stroke:#000000; stroke-width:0.0000; stroke-opacity:1; 
stroke-linecap:round; stroke-linejoin:round;">
</g>
<g style="fill:#000000; fill-opacity:1.0000; 
stroke:#000000; stroke-width:0.0000; stroke-opacity:1; 
stroke-linecap:round; stroke-linejoin:round;">
<path style="fill:#000000; fill-opacity:1.0000; 
stroke:#000000; stroke-width:0.0000; stroke-opacity:1; 
stroke-linecap:round; stroke-linejoin:round;fill-rule:evenodd;"
d="M 29.6060,27.0710
29.5870,27.1667
29.5328,27.2478
29.4517,27.3020
29.3560,27.3210
28.6560,27.3210
28.5603,27.3020
28.4792,27.2478
28.4250,27.1667
28.4060,27.0710
28.4060,26.1710
28.4250,26.0753
28.4792,25.9942
28.5603,25.9400
28.6560,25.9210
29.3560,25.9210
29.4517,25.9400
29.5328,25.9942
29.5870,26.0753
29.6060,26.1710
Z" /> 
<path style="fill:#000000; fill-opacity:1.0000; 
stroke:#000000; stroke-width:0.0000; stroke-opacity:1; 
stroke-linecap:round; stroke-linejoin:round;fill-rule:evenodd;"
d="M 27.6060,27.0710
27.5870,27.1667
27.5328,27.2478
27.4517,27.3020
27.3560,27.3210
26.6560,27.3210
26.5603,27.3020
26.4792,27.2478
26.4250,27.1667
26.4060,27.0710
26.4060,26.1710
26.4250,26.0753
26.4792,25.9942
26.5603,25.9400
26.6560,25.9210
27.3560,25.9210
27.4517,25.9400
27.5328,25.9942
27.5870,26.0753
27.6060,26.1710
Z" /> 
</g>
<g >
</g>
<g style="fill:#000000; fill-opacity:1.0000; 
stroke:#000000; stroke-width:0.0000; stroke-opacity:1; 
stroke-linecap:round; stroke-linejoin:round;">
<path style="fill:#000000; fill-opacity:1.0000; 
stroke:#000000; stroke-width:0.0000; stroke-opacity:1; 
stroke-linecap:round; stroke-linejoin:round;fill-rule:evenodd;"
d="M 26.4060,20.1730
26.4250,20.0773
26.4792,19.9962
26.5603,19.9420
26.6560,19.9230
27.3560,19.9230
27.4517,19.9420
27.5328,19.9962
27.5870,20.0773
27.6060,20.1730
27.6060,21.0730
27.5870,21.1687
27.5328,21.2498
27.4517,21.3040
27.3560,21.3230
26.6560,21.3230
26.5603,21.3040
26.4792,21.2498
26.4250,21.1687
26.4060,21.0730
Z" /> 
<path style="fill:#000000; fill-opacity:1.0000; 
stroke:#000000; stroke-width:0.0000; stroke-opacity:1; 
stroke-linecap:round; stroke-linejoin:round;fill-rule:evenodd;"
d="M 28.4060,20.1730
28.4250,20.0773
28.4792,19.9962
28.5603,19.9420
28.6560,19.9230
29.3560,19.9230
29.4517,19.9420
29.5328,19.9962
29.5870,20.0773
29.6060,20.1730
29.6060,21.0730
29.5870,21.1687
29.5328,21.2498
29.4517,21.3040
29.3560,21.3230
28.6560,21.3230
28.5603,21.3040
28.4792,21.2498
28.4250,21.1687
28.4060,21.0730
Z" /> 
</g>
<g >
</g>
<g >
</g>
<g style="fill:#000000; fill-opacity:1.0000; 
stroke:#000000; stroke-width:0.0000; stroke-opacity:1; 
stroke-linecap:round; stroke-linejoin:round;">
<path style="fill:#000000; fill-opacity:1.0000; 
stroke:#000000; stroke-width:0.0000; stroke-opacity:1; 
stroke-linecap:round; stroke-linejoin:round;fill-rule:evenodd;"
d="M 16.2300,26.1710
16.2490,26.0753
16.3032,25.9942
16.3843,25.9400
16.4800,25.9210
17.1800,25.9210
17.2757,25.9400
17.3568,25.9942
17.4110,26.0753
17.4300,26.1710
17.4300,27.0710
17.4110,27.1667
17.3568,27.2478
17.2757,27.3020
17.1800,27.3210
16.4800,27.3210
16.3843,27.3020
16.3032,27.2478
16.2490,27.1667
16.2300,27.0710
Z" /> 
<path style="fill:#000000; fill-opacity:1.0000; 
stroke:#000000; stroke-width:0.0000; stroke-opacity:1; 
stroke-linecap:round; stroke-linejoin:round;fill-rule:evenodd;"
d="M 18.2300,26.1710
18.2490,26.0753
18.3032,25.9942
18.3843,25.9400
18.4800,25.9210
19.1800,25.9210
19.2757,25.9400
19.3568,25.9942
19.4110,26.0753
19.4300,26.1710
19.4300,27.0710
19.4110,27.1667
19.3568,27.2478
19.2757,27.3020
19.1800,27.3210
18.4800,27.3210
18.3843,27.3020
18.3032,27.2478
18.2490,27.1667
18.2300,27.0710
Z" /> 
</g>
<g >
</g>
<g style="fill:#000000; fill-opacity:1.0000; 
stroke:#000000; stroke-width:0.0000; stroke-opacity:1; 
stroke-linecap:round; stroke-linejoin:round;">
<path style="fill:#000000; fill-opacity:1.0000; 
stroke:#000000; stroke-width:0.0000; stroke-opacity:1; 
stroke-linecap:round; stroke-linejoin:round;fill-rule:evenodd;"
d="M 26.3900,17.1250
26.4090,17.0293
26.4632,16.9482
26.5443,16.8940
26.6400,16.8750
27.3400,16.8750
27.4357,16.8940
27.5168,16.9482
27.5710,17.0293
27.5900,17.1250
27.5900,18.0250
27.5710,18.1207
27.5168,18.2018
27.4357,18.2560
27.3400,18.2750
26.6400,18.2750
26.5443,18.2560
26.4632,18.2018
26.4090,18.1207
26.3900,18.0250
Z" /> 
<path style="fill:#000000; fill-opacity:1.0000; 
stroke:#000000; stroke-width:0.0000; stroke-opacity:1; 
stroke-linecap:round; stroke-linejoin:round;fill-rule:evenodd;"
d="M 28.3900,17.1250
28.4090,17.0293
28.4632,16.9482
28.5443,16.8940
28.6400,16.8750
29.3400,16.8750
29.4357,16.8940
29.5168,16.9482
29.5710,17.0293
29.5900,17.1250
29.5900,18.0250
29.5710,18.1207
29.5168,18.2018
29.4357,18.2560
29.3400,18.2750
28.6400,18.2750
28.5443,18.2560
28.4632,18.2018
28.4090,18.1207
28.3900,18.0250
Z" /> 
</g>
<g >
</g>
<g style="fill:#000000; fill-opacity:1.0000; 
stroke:#000000; stroke-width:0.0000; stroke-opacity:1; 
stroke-linecap:round; stroke-linejoin:round;">
<path style="fill:#000000; fill-opacity:1.0000; 
stroke:#000000; stroke-width:0.0000; stroke-opacity:1; 
stroke-linecap:round; stroke-linejoin:round;fill-rule:evenodd;"
d="M 29.6060,14.4690
29.5870,14.5647
29.5328,14.6458
29.4517,14.7000
29.3560,14.7190
28.6560,14.7190
28.5603,14.7000
28.4792,14.6458
28.4250,14.5647
28.4060,14.4690
28.4060,13.5690
28.4250,13.4733
28.4792,13.3922
28.5603,13.3380
28.6560,13.3190
29.3560,13.3190
29.4517,13.3380
29.5328,13.3922
29.5870,13.4733
29.6060,13.5690
Z" /> 
<path style="fill:#000000; fill-opacity:1.0000; 
stroke:#000000; stroke-width:0.0000; stroke-opacity:1; 
stroke-linecap:round; stroke-linejoin:round;fill-rule:evenodd;"
d="M 27.6060,14.4690
27.5870,14.5647
27.5328,14.6458
27.4517,14.7000
27.3560,14.7190
26.6560,14.7190
26.5603,14.7000
26.4792,14.6458
26.4250,14.5647
26.4060,14.4690
26.4060,13.5690
26.4250,13.4733
26.4792,13.3922
26.5603,13.3380
26.6560,13.3190
27.3560,13.3190
27.4517,13.3380
27.5328,13.3922
27.5870,13.4733
27.6060,13.5690
Z" /> 
</g>
<g >
</g>
<g >
</g>
<g style="fill:#000000; fill-opacity:1.0000; 
stroke:#000000; stroke-width:0.0000; stroke-opacity:1; 
stroke-linecap:round; stroke-linejoin:round;">
<path style="fill:#000000; fill-opacity:1.0000; 
stroke:#000000; stroke-width:0.0000; stroke-opacity:1; 
stroke-linecap:round; stroke-linejoin:round;fill-rule:evenodd;"
d="M 16.2140,17.1250
16.2330,17.0293
16.2872,16.9482
16.3683,16.8940
16.4640,16.8750
17.1640,16.8750
17.2597,16.8940
17.3408,16.9482
17.3950,17.0293
17.4140,17.1250
17.4140,18.0250
17.3950,18.1207
17.3408,18.2018
17.2597,18.2560
17.1640,18.2750
16.4640,18.2750
16.3683,18.2560
16.2872,18.2018
16.2330,18.1207
16.2140,18.0250
Z" /> 
<path style="fill:#000000; fill-opacity:1.0000; 
stroke:#000000; stroke-width:0.0000; stroke-opacity:1; 
stroke-linecap:round; stroke-linejoin:round;fill-rule:evenodd;"
d="M 18.2140,17.1250
18.2330,17.0293
18.2872,16.9482
18.3683,16.8940
18.4640,16.8750
19.1640,16.8750
19.2597,16.8940
19.3408,16.9482
19.3950,17.0293
19.4140,17.1250
19.4140,18.0250
19.3950,18.1207
19.3408,18.2018
19.2597,18.2560
19.1640,18.2750
18.4640,18.2750
18.3683,18.2560
18.2872,18.2018
18.2330,18.1207
18.2140,18.0250
Z" /> 
</g>
<g >
</g>
<g style="fill:#000000; fill-opacity:1.0000; 
stroke:#000000; stroke-width:0.0000; stroke-opacity:1; 
stroke-linecap:round; stroke-linejoin:round;">
<path style="fill:#000000; fill-opacity:1.0000; 
stroke:#000000; stroke-width:0.0000; stroke-opacity:1; 
stroke-linecap:round; stroke-linejoin:round;fill-rule:evenodd;"
d="M 29.6060,10.9130
29.5870,11.0087
29.5328,11.0898
29.4517,11.1440
29.3560,11.1630
28.6560,11.1630
28.5603,11.1440
28.4792,11.0898
28.4250,11.0087
28.4060,10.9130
28.4060,10.0130
28.4250,9.9173
28.4792,9.8362
28.5603,9.7820
28.6560,9.7630
29.3560,9.7630
29.4517,9.7820
29.5328,9.8362
29.5870,9.9173
29.6060,10.0130
Z" /> 
<path style="fill:#000000; fill-opacity:1.0000; 
stroke:#000000; stroke-width:0.0000; stroke-opacity:1; 
stroke-linecap:round; stroke-linejoin:round;fill-rule:evenodd;"
d="M 27.6060,10.9130
27.5870,11.0087
27.5328,11.0898
27.4517,11.1440
27.3560,11.1630
26.6560,11.1630
26.5603,11.1440
26.4792,11.0898
26.4250,11.0087
26.4060,10.9130
26.4060,10.0130
26.4250,9.9173
26.4792,9.8362
26.5603,9.7820
26.6560,9.7630
27.3560,9.7630
27.4517,9.7820
27.5328,9.8362
27.5870,9.9173
27.6060,10.0130
Z" /> 
</g>
<g >
</g>
<g >
</g>
<g style="fill:#000000; fill-opacity:1.0000; 
stroke:#000000; stroke-width:0.0000; stroke-opacity:1; 
stroke-linecap:round; stroke-linejoin:round;">
<path style="fill:#000000; fill-opacity:1.0000; 
stroke:#000000; stroke-width:0.0000; stroke-opacity:1; 
stroke-linecap:round; stroke-linejoin:round;fill-rule:evenodd;"
d="M 43.1220,27.6450
42.3220,27.6450
42.3220,25.7450
43.1220,25.7450
Z" /> 
<path style="fill:#000000; fill-opacity:1.0000; 
stroke:#000000; stroke-width:0.0000; stroke-opacity:1; 
stroke-linecap:round; stroke-linejoin:round;fill-rule:evenodd;"
d="M 45.0220,27.6450
44.2220,27.6450
44.2220,25.7450
45.0220,25.7450
Z" /> 
<path style="fill:#000000; fill-opacity:1.0000; 
stroke:#000000; stroke-width:0.0000; stroke-opacity:1; 
stroke-linecap:round; stroke-linejoin:round;fill-rule:evenodd;"
d="M 44.0720,24.6450
43.2720,24.6450
43.2720,22.7450
44.0720,22.7450
Z" /> 
</g>
<g >
</g>
<g >
</g>
<g style="fill:#000000; fill-opacity:1.0000; 
stroke:#000000; stroke-width:0.0000; stroke-opacity:1; 
stroke-linecap:round; stroke-linejoin:round;">
<path style="fill:#000000; fill-opacity:1.0000; 
stroke:#000000; stroke-width:0.0000; stroke-opacity:1; 
stroke-linecap:round; stroke-linejoin:round;fill-rule:evenodd;"
d="M 16.2300,23.2210
16.2490,23.1253
16.3032,23.0442
16.3843,22.9900
16.4800,22.9710
17.1800,22.9710
17.2757,22.9900
17.3568,23.0442
17.4110,23.1253
17.4300,23.2210
17.4300,24.1210
17.4110,24.2167
17.3568,24.2978
17.2757,24.3520
17.1800,24.3710
16.4800,24.3710
16.3843,24.3520
16.3032,24.2978
16.2490,24.2167
16.2300,24.1210
Z" /> 
<path style="fill:#000000; fill-opacity:1.0000; 
stroke:#000000; stroke-width:0.0000; stroke-opacity:1; 
stroke-linecap:round; stroke-linejoin:round;fill-rule:evenodd;"
d="M 18.2300,23.2210
18.2490,23.1253
18.3032,23.0442
18.3843,22.9900
18.4800,22.9710
19.1800,22.9710
19.2757,22.9900
19.3568,23.0442
19.4110,23.1253
19.4300,23.2210
19.4300,24.1210
19.4110,24.2167
19.3568,24.2978
19.2757,24.3520
19.1800,24.3710
18.4800,24.3710
18.3843,24.3520
18.3032,24.2978
18.2490,24.2167
18.2300,24.1210
Z" /> 
</g>
<g >
</g>
<g >
</g>
<g style="fill:#000000; fill-opacity:1.0000; 
stroke:#000000; stroke-width:0.0000; stroke-opacity:1; 
stroke-linecap:round; stroke-linejoin:round;">
<path style="fill:#000000; fill-opacity:1.0000; 
stroke:#000000; stroke-width:0.0000; stroke-opacity:1; 
stroke-linecap:round; stroke-linejoin:round;fill-rule:evenodd;"
d="M 26.4060,23.2210
26.4250,23.1253
26.4792,23.0442
26.5603,22.9900
26.6560,22.9710
27.3560,22.9710
27.4517,22.9900
27.5328,23.0442
27.5870,23.1253
27.6060,23.2210
27.6060,24.1210
27.5870,24.2167
27.5328,24.2978
27.4517,24.3520
27.3560,24.3710
26.6560,24.3710
26.5603,24.3520
26.4792,24.2978
26.4250,24.2167
26.4060,24.1210
Z" /> 
<path style="fill:#000000; fill-opacity:1.0000; 
stroke:#000000; stroke-width:0.0000; stroke-opacity:1; 
stroke-linecap:round; stroke-linejoin:round;fill-rule:evenodd;"
d="M 28.4060,23.2210
28.4250,23.1253
28.4792,23.0442
28.5603,22.9900
28.6560,22.9710
29.3560,22.9710
29.4517,22.9900
29.5328,23.0442
29.5870,23.1253
29.6060,23.2210
29.6060,24.1210
29.5870,24.2167
29.5328,24.2978
29.4517,24.3520
29.3560,24.3710
28.6560,24.3710
28.5603,24.3520
28.4792,24.2978
28.4250,24.2167
28.4060,24.1210
Z" /> 
</g>
<g >
</g>
<g >
</g>
<g >
</g>
<g style="fill:#000000; fill-opacity:1.0000; 
stroke:#000000; stroke-width:0.0000; stroke-opacity:1; 
stroke-linecap:round; stroke-linejoin:round;">
<path style="fill:#000000; fill-opacity:1.0000; 
stroke:#000000; stroke-width:0.0000; stroke-opacity:1; 
stroke-linecap:round; stroke-linejoin:round;fill-rule:evenodd;"
d="M 19.4460,21.0730
19.4270,21.1687
19.3728,21.2498
19.2917,21.3040
19.1960,21.3230
18.4960,21.3230
18.4003,21.3040
18.3192,21.2498
18.2650,21.1687
18.2460,21.0730
18.2460,20.1730
18.2650,20.0773
18.3192,19.9962
18.4003,19.9420
18.4960,19.9230
19.1960,19.9230
19.2917,19.9420
19.3728,19.9962
19.4270,20.0773
19.4460,20.1730
Z" /> 
<path style="fill:#000000; fill-opacity:1.0000; 
stroke:#000000; stroke-width:0.0000; stroke-opacity:1; 
stroke-linecap:round; stroke-linejoin:round;fill-rule:evenodd;"
d="M 17.4460,21.0730
17.4270,21.1687
17.3728,21.2498
17.2917,21.3040
17.1960,21.3230
16.4960,21.3230
16.4003,21.3040
16.3192,21.2498
16.2650,21.1687
16.2460,21.0730
16.2460,20.1730
16.2650,20.0773
16.3192,19.9962
16.4003,19.9420
16.4960,19.9230
17.1960,19.9230
17.2917,19.9420
17.3728,19.9962
17.4270,20.0773
17.4460,20.1730
Z" /> 
</g>
<g >
</g>
<g style="fill:#000000; fill-opacity:1.0000; 
stroke:#000000; stroke-width:0.0000; stroke-opacity:1; 
stroke-linecap:round; stroke-linejoin:round;">
<path style="fill:#000000; fill-opacity:1.0000; 
stroke:#000000; stroke-width:0.0000; stroke-opacity:1; 
stroke-linecap:round; stroke-linejoin:round;fill-rule:evenodd;"
d="M 39.6720,22.7450
40.4720,22.7450
40.4720,24.6450
39.6720,24.6450
Z" /> 
<path style="fill:#000000; fill-opacity:1.0000; 
stroke:#000000; stroke-width:0.0000; stroke-opacity:1; 
stroke-linecap:round; stroke-linejoin:round;fill-rule:evenodd;"
d="M 37.7720,22.7450
38.5720,22.7450
38.5720,24.6450
37.7720,24.6450
Z" /> 
<path style="fill:#000000; fill-opacity:1.0000; 
stroke:#000000; stroke-width:0.0000; stroke-opacity:1; 
stroke-linecap:round; stroke-linejoin:round;fill-rule:evenodd;"
d="M 38.7220,25.7450
39.5220,25.7450
39.5220,27.6450
38.7220,27.6450
Z" /> 
</g>
<g >
</g>
<g style="fill:#000000; fill-opacity:1.0000; 
stroke:#000000; stroke-width:0.0000; stroke-opacity:1; 
stroke-linecap:round; stroke-linejoin:round;">
<path style="fill:#000000; fill-opacity:1.0000; 
stroke:#000000; stroke-width:0.0000; stroke-opacity:1; 
stroke-linecap:round; stroke-linejoin:round;fill-rule:evenodd;"
d="M 6.3980,24.8040
6.3866,24.8614
6.3541,24.9101
6.3054,24.9426
6.2480,24.9540
5.9480,24.9540
5.8906,24.9426
5.8419,24.9101
5.8094,24.8614
5.7980,24.8040
5.7980,23.5540
5.8094,23.4966
5.8419,23.4479
5.8906,23.4154
5.9480,23.4040
6.2480,23.4040
6.3054,23.4154
6.3541,23.4479
6.3866,23.4966
6.3980,23.5540
Z" /> 
<path style="fill:#000000; fill-opacity:1.0000; 
stroke:#000000; stroke-width:0.0000; stroke-opacity:1; 
stroke-linecap:round; stroke-linejoin:round;fill-rule:evenodd;"
d="M 5.3980,24.8040
5.3866,24.8614
5.3541,24.9101
5.3054,24.9426
5.2480,24.9540
4.9480,24.9540
4.8906,24.9426
4.8419,24.9101
4.8094,24.8614
4.7980,24.8040
4.7980,23.5540
4.8094,23.4966
4.8419,23.4479
4.8906,23.4154
4.9480,23.4040
5.2480,23.4040
5.3054,23.4154
5.3541,23.4479
5.3866,23.4966
5.3980,23.5540
Z" /> 
<path style="fill:#000000; fill-opacity:1.0000; 
stroke:#000000; stroke-width:0.0000; stroke-opacity:1; 
stroke-linecap:round; stroke-linejoin:round;fill-rule:evenodd;"
d="M 4.3980,24.8040
4.3866,24.8614
4.3541,24.9101
4.3054,24.9426
4.2480,24.9540
3.9480,24.9540
3.8906,24.9426
3.8419,24.9101
3.8094,24.8614
3.7980,24.8040
3.7980,23.5540
3.8094,23.4966
3.8419,23.4479
3.8906,23.4154
3.9480,23.4040
4.2480,23.4040
4.3054,23.4154
4.3541,23.4479
4.3866,23.4966
4.3980,23.5540
Z" /> 
<path style="fill:#000000; fill-opacity:1.0000; 
stroke:#000000; stroke-width:0.0000; stroke-opacity:1; 
stroke-linecap:round; stroke-linejoin:round;fill-rule:evenodd;"
d="M 3.3980,24.8040
3.3866,24.8614
3.3541,24.9101
3.3054,24.9426
3.2480,24.9540
2.9480,24.9540
2.8906,24.9426
2.8419,24.9101
2.8094,24.8614
2.7980,24.8040
2.7980,23.5540
2.8094,23.4966
2.8419,23.4479
2.8906,23.4154
2.9480,23.4040
3.2480,23.4040
3.3054,23.4154
3.3541,23.4479
3.3866,23.4966
3.3980,23.5540
Z" /> 
<path style="fill:#000000; fill-opacity:1.0000; 
stroke:#000000; stroke-width:0.0000; stroke-opacity:1; 
stroke-linecap:round; stroke-linejoin:round;fill-rule:evenodd;"
d="M 7.9980,27.3540
7.9790,27.4497
7.9248,27.5308
7.8437,27.5850
7.7480,27.6040
7.0480,27.6040
6.9523,27.5850
6.8712,27.5308
6.8170,27.4497
6.7980,27.3540
6.7980,26.0540
6.8170,25.9583
6.8712,25.8772
6.9523,25.8230
7.0480,25.8040
7.7480,25.8040
7.8437,25.8230
7.9248,25.8772
7.9790,25.9583
7.9980,26.0540
Z" /> 
<path style="fill:#000000; fill-opacity:1.0000; 
stroke:#000000; stroke-width:0.0000; stroke-opacity:1; 
stroke-linecap:round; stroke-linejoin:round;fill-rule:evenodd;"
d="M 2.3980,27.3540
2.3790,27.4497
2.3248,27.5308
2.2437,27.5850
2.1480,27.6040
1.4480,27.6040
1.3523,27.5850
1.2712,27.5308
1.2170,27.4497
1.1980,27.3540
1.1980,26.0540
1.2170,25.9583
1.2712,25.8772
1.3523,25.8230
1.4480,25.8040
2.1480,25.8040
2.2437,25.8230
2.3248,25.8772
2.3790,25.9583
2.3980,26.0540
Z" /> 
</g>
<g >
</g>
<g >
</g>
<g >
</g>
<g >
</g>
<g >
</g>
<g >
</g>
<g >
</g>
<g >
</g>
<g >
</g>
<g >
</g>
<g >
</g>
<g >
</g>
</g>
<g style="fill:#000000; fill-opacity:1.0000; 
stroke:#000000; stroke-width:0.0000; stroke-opacity:1; 
stroke-linecap:round; stroke-linejoin:round;">
</g>
<g style="fill:#000000; fill-opacity:0.0; 
stroke:#000000; stroke-width:0.1000; stroke-opacity:1; 
stroke-linecap:round; stroke-linejoin:round;">
<path d="M1.5740 0.3030 A1.5240 1.5240 0.0 0 0 0.0500 1.8270" />
<path d="M1.5740 28.7510
L51.3580 28.7510
" />
<path d="M0.0500 1.8270
L0.0500 27.2270
" />
<path d="M52.8820 1.8270 A1.5240 1.5240 0.0 0 0 51.3580 0.3030" />
<path d="M51.3580 28.7510 A1.5240 1.5240 0.0 0 0 52.8820 27.2270" />
<path d="M0.0500 27.2270 A1.5240 1.5240 0.0 0 0 1.5740 28.7510" />
<path d="M51.3580 0.3030
L1.5740 0.3030
" />
<path d="M52.8820 27.2270
L52.8820 1.8270
" />
<g >
</g>
<g >
</g>
<g >
</g>
<g >
</g>
<g >
</g>
<g >
</g>
<g >
</g>
<g >
</g>
<g >
</g>
<g >
</g>
<g >
</g>
<g >
</g>
<g >
</g>
<g >
</g>
<g >
</g>
<g >
</g>
<g >
</g>
<g >
</g>
<g >
</g>
<g >
</g>
<g >
</g>
<g >
</g>
<g >
</g>
<g >
</g>
<g >
</g>
<g >
</g>
<g >
</g>
<g >
</g>
<g >
</g>
<g >
</g>
<g >
</g>
<g >
</g>
</g> 
</svg>
